<svg width="166" height="49" viewBox="0 0 166 49" fill="none" xmlns="http://www.w3.org/2000/svg">
<path d="M12.8471 35.1047V8.88962C12.8471 7.70799 11.4237 7.11043 10.5802 7.93798L0.399504 17.9266C0.14397 18.1773 0 18.5203 0 18.8783V47.4064C0 48.1427 0.596893 48.7396 1.33319 48.7396H29.2815C29.624 48.7396 29.9533 48.6078 30.2013 48.3715L40.3113 38.7362C41.1823 37.906 40.5947 36.4379 39.3915 36.4379H14.1803C13.444 36.4379 12.8471 35.841 12.8471 35.1047Z" fill="white"/>
<path d="M23.6716 0.355228L14.7144 9.4617C14.5156 9.66374 14.6588 10.0053 14.9422 10.0053H26.8009C26.9774 10.0053 27.1205 10.1483 27.1205 10.3248V22.4668C27.1205 22.6433 27.2635 22.7863 27.44 22.7863H39.4222C39.5987 22.7863 39.7417 22.9294 39.7417 23.1058V34.3166C39.7417 34.6013 40.0859 34.7439 40.2872 34.5426L49.2339 25.5959C49.2938 25.5359 49.3275 25.4547 49.3275 25.3699V12.881C49.3275 12.7046 49.1844 12.5615 49.008 12.5615H37.0258C36.8493 12.5615 36.7062 12.4184 36.7062 12.242V0.579291C36.7062 0.402822 36.5632 0.259766 36.3867 0.259766H23.8994C23.8137 0.259766 23.7316 0.294159 23.6716 0.355228Z" fill="white"/>
<path d="M67.7154 43.1602V10.0557H71.9155V37.6051C71.9155 38.8471 72.6607 39.5923 73.9027 39.5923H88.3097V43.1602H67.7154ZM91.2335 43.1602V20.4658H95.2756V43.1602H91.2335ZM90.6238 14.9107C90.6238 13.4655 91.8432 12.3139 93.311 12.3139C94.7337 12.3139 95.9305 13.4655 95.9305 14.9107C95.9305 16.4011 94.7337 17.5528 93.311 17.5528C91.8432 17.5528 90.6238 16.4011 90.6238 14.9107ZM105.674 19.5399C105.674 20.1496 105.99 20.4658 106.6 20.4658H110.122V23.6724H106.6C105.99 23.6724 105.674 23.9885 105.674 24.5982V43.1602H101.632V24.5982C101.632 23.9885 101.316 23.6724 100.706 23.6724H98.4479V20.4658H100.706C101.316 20.4658 101.632 20.1496 101.632 19.5399V15.0462H105.674V19.5399ZM131.924 10.0331H136.283L126.866 43.1376H120.001L110.359 10.0331H114.898L122.937 38.5987C123.027 38.9148 123.208 39.1858 123.524 39.1858C123.863 39.1858 123.998 38.9148 124.089 38.5987L131.924 10.0331ZM139.658 43.1602V10.0557H143.858L150 16.9431C150.452 17.4399 150.949 17.6657 151.423 17.6657C151.897 17.6657 152.394 17.4173 152.846 16.9431L158.943 10.0557H163.211V43.1602H159.01V18.4786C159.01 17.5979 158.514 17.1011 157.904 17.1011C157.565 17.1011 157.159 17.3044 156.797 17.7334L151.468 23.853H151.4L146.049 17.8238C145.687 17.3947 145.281 17.2141 144.92 17.2141C144.332 17.2141 143.858 17.6883 143.858 18.5689V43.1602H139.658Z" fill="white"/>
</svg>
