<svg width="1786" height="1120" viewBox="0 0 1786 1120" fill="none" xmlns="http://www.w3.org/2000/svg">
<g opacity="0.2" filter="url(#filter0_f_3054_3185)">
<path d="M362.776 31.2419C364.57 30.0998 367.343 28.7131 368.893 28.142C371.177 27.3263 391.81 27.0816 561.775 27L565.853 28.9578C568.136 29.9367 571.317 32.3839 573.03 34.1786C574.661 36.0548 576.618 38.9915 577.352 40.7045C578.086 42.336 578.82 46.4963 579.391 55.959L510.149 290.894C472.062 420.108 440.989 525.91 440.989 525.992C441.071 526.155 470.268 517.427 505.908 506.659C541.549 495.891 570.828 487.162 570.909 487.326C570.991 487.407 564.874 508.453 557.452 534.149C549.949 559.764 543.669 580.973 543.425 581.218C543.18 581.463 513.493 590.11 477.364 600.388C439.684 611.074 411.466 619.558 411.139 620.129C410.813 620.782 391.729 684.573 368.893 761.987C345.976 839.402 327.054 903.356 326.891 904.172C326.483 905.477 1293.06 905.559 1742.84 905.966L1747.33 908.495C1749.78 909.882 1753.04 912.656 1754.51 914.613C1756.06 916.571 1757.77 920.079 1758.42 922.281C1759.07 924.565 1759.56 928.236 1759.56 930.439C1759.56 933.376 1753.77 954.585 1739.5 1003.86C1728.41 1042.03 1718.62 1074.83 1717.72 1076.87C1716.75 1078.9 1714.22 1082.25 1712.1 1084.45C1709.98 1086.57 1706.06 1089.26 1698.8 1092.77L391.974 1093.02C57.346 1093.18 40.219 1093.1 40.5453 1091.79C40.7084 1090.98 66.725 1001.82 98.4506 893.73C130.176 785.644 156.03 697.054 155.867 696.891C155.703 696.728 126.832 705.293 91.5998 715.898C56.3673 726.502 27.3331 735.068 27.0068 734.904C26.7622 734.741 33.1236 714.511 41.1162 689.794C49.1903 665.158 55.8779 644.846 55.9595 644.846C56.0411 644.765 85.0753 635.955 120.471 625.268C155.785 614.5 185.064 605.609 185.472 605.364C185.88 605.119 223.233 479.086 268.578 325.155C313.924 171.305 351.685 43.8859 352.663 42.0913C353.56 40.2967 355.518 37.6047 356.904 36.0548C358.372 34.5864 360.982 32.3839 362.776 31.2419Z" fill="url(#paint0_linear_3054_3185)"/>
<path d="M362.776 31.2419C364.57 30.0998 367.343 28.7131 368.893 28.142C371.177 27.3263 391.81 27.0816 561.775 27L565.853 28.9578C568.136 29.9367 571.317 32.3839 573.03 34.1786C574.661 36.0548 576.618 38.9915 577.352 40.7045C578.086 42.336 578.82 46.4963 579.391 55.959L510.149 290.894C472.062 420.108 440.989 525.91 440.989 525.992C441.071 526.155 470.268 517.427 505.908 506.659C541.549 495.891 570.828 487.162 570.909 487.326C570.991 487.407 564.874 508.453 557.452 534.149C549.949 559.764 543.669 580.973 543.425 581.218C543.18 581.463 513.493 590.11 477.364 600.388C439.684 611.074 411.466 619.558 411.139 620.129C410.813 620.782 391.729 684.573 368.893 761.987C345.976 839.402 327.054 903.356 326.891 904.172C326.483 905.477 1293.06 905.559 1742.84 905.966L1747.33 908.495C1749.78 909.882 1753.04 912.656 1754.51 914.613C1756.06 916.571 1757.77 920.079 1758.42 922.281C1759.07 924.565 1759.56 928.236 1759.56 930.439C1759.56 933.376 1753.77 954.585 1739.5 1003.86C1728.41 1042.03 1718.62 1074.83 1717.72 1076.87C1716.75 1078.9 1714.22 1082.25 1712.1 1084.45C1709.98 1086.57 1706.06 1089.26 1698.8 1092.77L391.974 1093.02C57.346 1093.18 40.219 1093.1 40.5453 1091.79C40.7084 1090.98 66.725 1001.82 98.4506 893.73C130.176 785.644 156.03 697.054 155.867 696.891C155.703 696.728 126.832 705.293 91.5998 715.898C56.3673 726.502 27.3331 735.068 27.0068 734.904C26.7622 734.741 33.1236 714.511 41.1162 689.794C49.1903 665.158 55.8779 644.846 55.9595 644.846C56.0411 644.765 85.0753 635.955 120.471 625.268C155.785 614.5 185.064 605.609 185.472 605.364C185.88 605.119 223.233 479.086 268.578 325.155C313.924 171.305 351.685 43.8859 352.663 42.0913C353.56 40.2967 355.518 37.6047 356.904 36.0548C358.372 34.5864 360.982 32.3839 362.776 31.2419Z" stroke="#418ACA" stroke-width="3.5498"/>
</g>
<defs>
<filter id="filter0_f_3054_3185" x="0.816244" y="0.816732" width="1784.93" height="1118.45" filterUnits="userSpaceOnUse" color-interpolation-filters="sRGB">
<feFlood flood-opacity="0" result="BackgroundImageFix"/>
<feBlend mode="normal" in="SourceGraphic" in2="BackgroundImageFix" result="shape"/>
<feGaussianBlur stdDeviation="12.2042" result="effect1_foregroundBlur_3054_3185"/>
</filter>
<linearGradient id="paint0_linear_3054_3185" x1="415.703" y1="327.059" x2="415.703" y2="1093.08" gradientUnits="userSpaceOnUse">
<stop stop-color="#0B1525"/>
<stop offset="1" stop-color="#345D9D" stop-opacity="0.8"/>
</linearGradient>
</defs>
</svg>
